<svg width="581" height="993" viewBox="0 0 581 993" fill="none" xmlns="http://www.w3.org/2000/svg">
<path d="M18.5319 991.242C20.8245 989.874 23.5867 984.364 25.6584 978.833C27.9453 972.726 32.7848 967.791 39.4485 960.658C49.4417 949.96 59.937 940.169 65.6962 937.386C71.773 934.45 97.0331 937.379 118.129 936.233C147.38 934.644 157.497 934.617 165.818 933.243C177.258 931.354 186.528 930.943 197.114 929.1C205.046 927.718 215.973 924.507 228.865 918.299C244.211 910.91 258.317 900.615 269.393 885.188C277.835 873.43 280 866.06 282.541 857.538C284.758 850.106 286.463 843.962 287.61 835.904C289.139 825.155 289.226 803.137 286.477 784.582C284.833 773.48 279.116 764.771 276.119 758.556C271.585 749.153 267.156 742.231 246.495 711.233C237.589 697.871 232.159 692.954 227.325 687.423C222.683 682.111 216.525 674.558 189.891 646.536C179.046 635.126 169.098 627.573 163.339 622.739C157.403 617.757 150.233 615.143 139.198 608.935C125.275 601.103 116.617 602.244 106.5 602.002C98.8374 601.819 84.4652 612.298 75.1773 619.48C69.5968 623.795 63.224 628.457 46.4507 644.747C33.6262 657.202 29.6083 670.332 22.9307 682.292C18.4279 690.357 15.3278 696.572 10.9497 710.825C8.21545 719.727 9.77582 727.426 11.6196 736.852C12.5628 741.674 13.9191 745.85 16.2117 749.523C21.5603 758.094 33.6687 761.042 41.9828 764.273C50.2323 767.48 60.8485 767.505 67.9888 768.651C74.0886 769.631 79.2861 769.342 90.7008 770.033C119.383 771.768 141.421 769.812 146.932 769.121C152.405 768.435 168.933 766.607 193.751 762.243C224.102 756.906 237.573 751.871 248.912 748.412C256.583 746.071 264.78 743.115 271.479 739.897C284.49 733.646 300.247 719.195 308.064 714.126C325.048 703.113 335.713 687.43 341.224 676.167C344.766 668.926 347.673 660.747 350.215 652.902C353.242 643.556 355.518 629.009 356.436 621.13C357.251 614.144 353.225 604.122 346.113 589.628C340.797 578.796 328.393 574.622 316.433 569.339C308.347 565.768 280.718 559.927 255.023 554.148C217.696 545.751 208.238 545.15 195.132 542.857C182.984 540.732 168.187 538.244 160.584 536.642C150.329 534.481 137.83 530.427 126.982 527.209C119.858 525.096 113.855 521.229 107.177 518.688C94.3942 513.823 78.8579 499.601 73.3405 494.988C65.5854 488.505 62.2849 478.913 59.9715 467.622C57.6725 456.402 57.2024 436.209 61.0971 413.318C62.9485 402.436 72.3668 393.257 77.4354 385.896C84.8384 375.145 92.6136 368.867 103.655 360.802C112.076 354.651 133.908 345.886 149.473 340.527C159.377 337.118 171.336 335.224 179.167 334.078C184.16 333.347 189.304 333.387 195.947 332.697C206.637 331.585 228.761 335.196 254.519 340.251C277.1 344.683 289.143 354.062 303.679 362.583C316.045 369.833 320.051 387.65 321.681 397.794C323.5 409.114 315.024 415.3 308.823 424.263C299.543 437.677 289.723 440.159 281.892 444.772C271.745 450.749 262.571 456.263 237.359 473.223C224.052 482.174 204.012 499.242 192.535 508.834C178.857 520.266 175.078 524.875 168.435 531.056C157.075 541.625 146.559 555.674 134.868 575.368C127.158 588.356 118.164 608.735 112.778 620.433C106.192 634.736 103.718 648.165 100.955 667.922C95.9751 703.543 108.745 729.719 111.286 735.719C113.981 742.084 117.501 748.142 123.239 755.966C127.97 762.417 135.427 765.185 162.29 773.23C169.901 775.509 173.656 775.792 177.102 775.336C184.046 774.417 191.583 763.887 195.532 756.249C199.945 747.718 200.836 734.414 201.982 717.662C203.742 691.936 200.85 667.224 197.866 651.839C196.38 644.175 194.428 636.909 181.183 603.073C167.938 569.236 143.327 509.076 129.965 474.894C114.254 434.701 113.827 425.022 113.599 419.284C113.48 416.274 112.916 413.09 112.681 399.824C112.446 386.559 112.446 363.315 113.813 346.1C117.03 305.601 124.406 299.813 128.771 293.812C132.98 288.024 137.278 281.389 142.119 275.402C148.781 267.162 157.055 262.523 176.114 257.206C204.324 249.336 222.878 265.672 231.192 272.819C234.784 275.907 246.771 287.701 267.432 310.875C278.451 323.235 289.005 338.152 299.881 355.692C310.757 373.232 321.239 393.285 330.057 417.288C338.876 441.292 345.712 468.637 350.373 491.156C355.035 513.675 357.313 530.538 358.487 549.479C359.661 568.421 359.661 588.93 358.75 605.193C357.838 621.455 356.015 632.849 352.569 645.327C345.368 671.403 337.578 686.919 335.05 691.511C327.853 704.587 310.936 723.697 301.683 731.804C294.681 737.939 286.519 741.706 276.381 745.394C267.618 748.582 255.223 748.17 243.732 748.398C234.951 748.572 213.445 749.551 185.374 749.323C172.782 749.221 158.146 743.157 136.083 733.51C118.901 725.997 107.888 716.902 99.8436 710.238C82.3122 695.717 66.8977 670.415 56.7812 656.611C49.7347 646.995 40.6846 635.915 34.2004 625.743C30.424 619.819 28.6691 612.851 26.8254 604.343C24.4038 593.169 24.0563 582.025 27.951 570.969C30.5468 563.601 38.7511 558.988 47.2724 553.457C55.4757 548.132 64.5222 541.504 83.5813 529.55C97.8187 520.621 117.86 513.882 140.13 506.99C176.224 495.821 185.147 497.281 203.522 494.519C211.287 493.352 217.381 493.138 231.095 489.706C261.014 482.219 283.674 477.946 289.184 476.337C302.835 472.351 319.554 468.278 342.991 459.791C365.002 451.821 379.411 437.922 384.735 431.693C387.505 428.452 390.031 422.274 392.103 414.236C394.003 406.862 391.896 401.074 388.008 395.806C375.998 379.529 366.152 377.154 356.029 372.762C345.599 368.237 325.728 362.873 304.335 358.73C285.351 355.053 267.653 354.559 241.688 352.267C228.171 351.073 215.627 350.886 205.739 349.504C199.989 348.701 183.034 346.3 159.106 341.701C132.972 336.678 104.657 327.877 97.2817 326.482C89.5436 325.018 82.5593 320.971 73.3612 317.518C56.6512 311.246 45.3251 304.426 34.9048 297.955C26.2692 292.593 11.737 278.71 3.58163 267.578C-0.688139 261.75 0.577759 245.122 5.61874 227.547C7.8128 219.898 15.7421 216.478 22.4197 210.947C28.6032 205.825 37.8119 200.374 46.1261 195.52C48.0092 194.42 49.7998 192.999 70.1087 183.18C90.4177 173.36 129.157 155.13 154.127 143.915C188.811 128.338 203.557 124.387 211.139 122.322C217.61 120.56 231.109 116.114 250.645 111.75C265.322 108.471 276.74 105.052 286.394 103.215C310.995 98.5339 345.795 89.8596 353.191 87.7879C362.096 85.2934 375.682 83.8656 384.272 88.2161C391.186 91.7176 390.957 100.411 398.76 115.106C405.28 127.384 403.386 135.85 403.628 144.371C403.846 152.065 401.563 161.151 400.866 171.068C400.102 181.93 396.978 202.943 393.049 217.569C390.706 226.29 386.371 235.288 381.089 248.623C378.966 253.982 374.439 270.175 367.078 293.853C359.409 318.521 357.838 336.495 354.151 352.888C349.346 374.25 344.939 390.882 341.949 398.727C339.324 405.612 335.741 412.068 330.679 416.011C323.752 421.407 312.262 406.599 297.878 394.949C285.485 384.912 262.073 367.348 249.188 357.28C234.284 345.635 230.322 341.688 221.856 333.912C205.09 318.513 193.488 305.323 186.624 297.769C173.916 283.782 160.37 269.457 152.781 259.105C144.781 248.193 137.333 236.283 131.802 229.826C121.285 217.55 109.711 199.905 100.741 188.642C95.0082 181.444 89.4647 174.134 84.6102 168.133C79.9872 162.418 75.1842 157.091 69.653 150.413C62.8927 142.252 48.0873 125.851 40.4153 117.033C35.3618 111.224 30.9894 103.698 27.0602 97.6973C26.2092 96.3977 25.9069 94.942 25.9 93.554C25.862 85.9127 40.1322 81.573 71.9456 70.5865C90.7647 64.0874 123.301 55.0561 141.566 49.442C163.133 42.813 172.689 39.2288 187.142 35.5551C204.609 31.1155 225.585 30.0031 243.297 30.231C256.57 30.4018 275.719 34.1188 292.637 38.2759C297.248 39.4088 300.26 42.4191 302.56 45.1744C304.537 47.543 304.873 50.7057 305.564 55.0561C308.003 70.4253 287.955 87.8984 271.092 102.469C266.149 106.74 248.87 119.663 223.341 137.376C209.549 146.945 195.408 156.525 178.4 170.771C157.586 188.205 152.525 196.632 138.355 211.25C126.646 223.331 106.866 245.923 93.3456 261.985C64.0145 296.829 61.3733 304.812 58.3626 310.344C57.6214 311.705 56.7605 313.099 58.5697 312.664C71.9781 309.44 84.7138 299.371 109.304 286.043C122.608 278.833 146.946 267.33 209.067 229.094C271.189 190.859 370.544 126.597 436.767 85.2882C502.991 43.9798 533.071 27.5724 549.25 18.4365C566.797 7.93332 570.029 5.61308 573.475 3.77624C575.097 2.8509 576.465 1.93939 579.254 1.00024" stroke="black" stroke-opacity="0.07" stroke-width="2" stroke-linecap="round"/>
</svg>
