<svg width="554" height="1015" viewBox="0 0 554 1015" fill="none" xmlns="http://www.w3.org/2000/svg">
<path d="M239.207 1C239.207 4.70497 237.099 12.1469 234.425 18.5427C231.88 24.6263 230.712 31.3105 229.362 37.7064C227.693 45.6197 226.975 55.2651 226.695 66.9629C226.508 74.8141 232.277 80.8166 233.083 87.2124C234.618 99.3817 233.363 117.547 229.378 123.679C225.226 130.07 216.882 131.409 207.835 132.215C199.661 132.944 156.548 135.146 132.498 131.704C128.763 131.17 129.017 122.945 130.334 115.239C132.814 100.737 149.745 97.9042 156.405 94.9657C164.422 91.4279 172.103 90.9733 188.791 89.1049C234.118 84.03 240.773 92.5383 247.168 95.2133C253.761 97.9703 259.936 102.663 266.596 108.237C274.998 115.268 281.24 120.741 286.566 125.811C288.975 128.105 288.714 133.517 287.66 138.835C285.96 147.41 274.373 146.324 257.11 151.89C246.796 155.215 239.239 155.906 228.867 159.883C222.019 162.508 212.123 163.348 204.098 165.216C196.223 167.05 186.539 168.682 178.299 172.387C162.809 179.351 156.197 181.969 150.328 187.822C145.264 192.872 143.932 200.589 142.854 206.985C141.539 214.788 158.241 214.451 169.699 217.645C176.721 219.602 184.336 219.785 192.065 221.11C202.86 222.962 212.538 222.979 224.763 224.304C242.078 226.182 255.688 224.049 259.936 222.723C269.395 219.772 278.014 208.127 282.318 200.645C283.992 197.734 283.923 194.249 283.659 191.063C283.525 189.443 282.869 187.877 281.543 186.536C275.102 180.018 253.197 181.458 218.455 184.093C198.354 185.617 173.7 191.998 159.886 194.713C133.334 199.931 110.971 206.466 100.574 209.924C91.774 212.85 81.1713 216.048 72.883 218.443C61.5549 221.718 48.1459 228.281 39.8816 231.219C32.8017 233.737 24.7344 241.025 19.632 248.77C18.5927 250.348 19.8796 252.746 23.8401 254.886C44.223 265.9 58.6859 265.011 71.7412 266.361C90.0333 268.251 112.44 268.748 127.1 269.555C133.78 269.922 158.081 270.888 191.075 271.151C205.118 271.264 217.808 272.485 235.095 272.748C244.51 272.892 264.583 274.082 291.987 274.345C311.069 274.529 324.869 276.733 351.69 277.539C358.988 277.759 362.158 278.873 365.081 279.663C368.335 280.544 369.089 285.772 369.097 289.493C369.104 292.887 363.787 294.3 351.642 298.268C322.154 307.904 292.53 312.393 277.375 315.316C260.888 318.495 236.716 324.61 222.735 327.045C217.974 327.875 211.564 328.379 205.975 326.534C200.419 324.701 204.601 315.619 206.19 312.17C210.606 302.583 224.739 287.496 259.928 257.034C284.515 235.75 327.264 208.127 358.725 184.5C390.185 160.873 410.211 143.482 421.582 133.205C441.86 114.878 452.627 103.238 473.355 88.0588C493.455 73.3399 471.343 131.824 466.265 149.183C458.028 177.337 448.443 191.519 444.961 199.264C441.395 207.199 437.775 213.365 430.349 225.582C419.893 242.784 415.417 249.041 413.293 253.026C412.277 254.932 411.169 256.483 406.937 253.082C394.016 242.696 385.618 230.98 378.998 225.159C355.651 204.628 343.585 193.211 336.647 187.862C335.119 186.684 333.461 185.738 331.856 185.458C330.251 185.179 328.67 185.706 327.328 186.768C321.766 191.171 318.034 202.154 308.444 216.008C301.767 225.654 301.489 252.555 305.729 273.771C308.319 286.731 316.373 298.005 325.675 316.593C330.57 326.374 331.832 333.138 333.157 342.704C334.392 351.614 332.375 358.705 330.251 362.418C325.257 371.148 312.221 378.364 297.545 384.52C285.792 389.451 273.319 394.366 265.853 396.777C256.696 399.735 231.957 398.646 215.021 399.971C209.991 400.365 204.633 400.77 196.161 401.568C181.428 402.957 151.055 398.151 117.798 392.561C98.2872 389.282 79.1272 389.064 62.7822 393.831C52.4326 396.849 42.844 411.358 34.8192 420.444C29.3289 426.661 20.4864 436.909 12.7251 448.91C7.21613 457.429 4.45283 467.283 3.12735 476.586C2.63812 480.019 2.85586 484.786 3.90986 488.284C7.12746 498.96 18.7936 499.766 34.6755 502.433C66.2311 507.732 91.1843 510.434 101.253 510.961C107.646 511.295 116.592 512.542 136.754 513.085C156.916 513.628 188.009 513.628 204.553 512.837C221.098 512.047 222.152 510.466 222.695 508.861C224.744 502.802 219.533 495.039 216.594 488.1C213.37 480.487 200.433 468.465 178.674 447.225C165.023 433.9 137.544 411.358 121.064 397.568C93.0588 374.135 84.3333 372.583 78.2009 371.226C69.0309 369.196 69.4176 390.086 69.1222 429.084C68.9091 457.206 83.1835 471.467 98.2988 498.289C107.258 514.185 128.09 540.233 138.662 555.133C153.248 575.689 159.327 583.319 166.785 590.522C175.434 598.875 183.282 609.957 190.731 617.662C201.666 628.972 211.484 634.965 218.423 640.834C225.182 646.551 233.331 654.129 238.92 659.199C244.51 664.27 248.246 670.099 252.766 676.758C253.91 678.445 253.58 680.734 252.79 682.084C249.319 688.009 240.836 690.348 222.839 700.665C210.836 707.545 188.552 718.87 174.514 725.633C155.566 734.763 143.98 738.241 123.603 745.923C109.166 751.365 85.8344 758.347 72.0446 762.412C54.71 767.521 36.009 767.546 13.1244 765.701C4.8161 765.032 3.9418 760.168 3.13533 756.95C0.349952 745.836 -0.338078 734.073 4.94789 722.088C10.6615 709.133 27.2576 695.762 50.3098 677.988C64.2792 667.217 85.4831 656.524 99.4965 649.234C130.488 633.111 147.573 632.346 165.923 628.362C197.918 621.414 213.049 619.571 229.562 616.113C246.869 612.489 264.152 613.183 277.75 612.376C284.944 611.95 307.159 611.043 334.842 609.989C344.134 609.635 343.554 606.827 340.911 605.214C334.207 601.123 325.476 600.407 298.551 595.121C274.866 590.471 230.52 583.511 203.236 579.447C167.102 574.064 151.438 573.258 132.107 571.661C99.7062 568.985 77.9294 571.645 75.2705 573.234C66.8747 578.252 74.1766 596.638 77.8975 603.561C84.204 615.294 94.9052 628.034 111.649 642.128C125.262 653.585 136.442 661.06 162.569 678.219C185.889 693.535 230.328 721.202 254.451 736.644C289.488 759.075 303.054 770.165 309.714 777.104C316.899 784.59 323.815 790.414 329.412 796.794C337.501 806.014 345.087 813.283 351.243 819.958C352.525 821.349 354.157 822.354 355.762 822.897C357.367 823.44 358.948 823.44 360.026 822.386C365.475 817.058 366.422 808.045 371.205 799.254C373.732 794.609 375.988 785.176 380.771 771.115C386.28 754.919 386.129 733.594 384.811 715.764C384.342 709.408 380.859 709.001 376.076 708.729C364.457 708.07 345.262 712.674 313.722 724.859C294.142 732.423 267.953 744.422 252.534 751.712C225.687 764.406 213.72 774.413 194.564 789.049C182.028 798.627 171.656 805.298 150.392 815.686C137.714 821.88 125.343 824.494 103.553 833.517C94.6698 837.195 87.5272 839.921 82.4728 843.905C80.3799 845.555 80.0534 847.362 81.6264 849.494C83.1994 851.626 86.8884 854.261 127.26 866.422C167.631 878.583 244.573 900.19 286.318 912.375C328.063 924.56 332.279 926.668 346.572 931.97C384.927 946.198 412.718 954.918 418.292 956.507C430.714 960.049 440.905 964.484 459.47 972.972C487.728 985.892 509.607 991.649 517.016 994.028C530.75 999.043 541.019 1003.35 544.732 1006.27C546.864 1008.13 549.499 1010.76 552.214 1013.48" stroke="black" stroke-opacity="0.07" stroke-width="2" stroke-linecap="round"/>
</svg>
