<svg width="516" height="1023" viewBox="0 0 516 1023" fill="none" xmlns="http://www.w3.org/2000/svg">
<path d="M408.451 1022C407.887 1018.59 406.741 1008.37 405.322 999.489C404.008 991.263 403.322 983.243 401.903 974.11C399.443 958.28 399.902 950.135 398.201 942.996C395.724 932.603 395.354 921.032 394.491 912.473C393.262 900.298 387.386 883.405 385.659 873.955C383.369 861.42 379.966 852.557 377.683 843.997C375.255 834.893 373.126 824.618 369.707 813.756C366.55 803.73 362.868 788.669 359.166 778.945C355.152 768.402 352.609 755.561 348.907 746.701C345.773 739.2 344.06 729.882 338.657 715.631C333.363 701.668 330.962 692.22 326.688 681.958C317.587 660.106 309.35 639.836 302.46 626.295C298.287 618.095 291.671 603.27 285.08 587.512C282.475 581.286 278.522 572.97 275.111 562.151C272.023 552.353 262.057 527.468 250.088 495.806C244.042 479.812 242.052 470.256 240.325 461.671C238.083 450.522 235.76 441.701 234.059 432.004C232.527 423.27 230.631 401.883 232.332 386.921C233.458 377.013 238.017 366.96 241.163 356.68C243.674 348.475 251.114 342.412 257.107 334.99C265.113 325.077 273.342 324.129 280.472 323.264C290.469 322.052 300.699 322.964 308.966 326.671C316.082 329.861 321.798 335.495 326.081 342.352C329.96 348.561 330.928 357.168 333.211 364.606C335.331 371.515 337.767 378.293 338.631 393.674C339.116 402.306 337.22 409.107 334.938 415.963C332.593 423.007 328.671 429.65 326.389 436.506C324.106 443.362 321.832 450.193 319.267 458.47C316.802 466.426 311.573 472.447 309.008 479.303C306.277 486.606 301.896 492.99 297.613 501.267C293.681 508.864 289.346 516.956 283.943 528.075C279.953 536.286 273.41 543.765 267.981 551.203C262.613 558.559 256.312 568.279 246.925 580.844C229.875 603.668 221.534 609.399 209.891 621.639C190.385 642.143 184.5 647.643 175.669 655.902C165.628 665.294 158.853 669.897 151.723 674.75C143.273 680.502 136.625 685.304 128.358 688.454C120.839 691.319 107.627 693.316 97.2909 691.613C93.7431 691.028 90.4431 689.327 87.3141 687.624C80.3494 683.832 80.1671 674.519 78.748 667.663C77.1283 659.838 80.7143 650.553 85.2795 643.697C89.8447 636.841 94.3928 630.01 100.941 622.871C108.593 614.531 114.911 609.467 122.596 602.611C129.697 596.277 136.557 591.766 145.106 586.913C155.697 580.9 170.137 571.258 183.568 562.382C190.719 557.655 199.238 552.975 206.668 548.96C215.209 544.345 223.176 535.856 230.887 530.421C239.887 524.077 247.695 518.155 255.962 511.881C263.251 506.348 269.922 501.618 278.189 496.465C287.378 490.738 298.408 482.205 305.837 477.634C312.594 473.477 319.507 470.222 326.354 465.651C333.202 461.08 343.41 455.397 352.002 450.244C358.805 446.163 366.8 441.702 374.511 437.97C383.352 433.691 391.319 430.266 398.167 426.56C404.602 423.077 411.837 421.707 420.103 418C427.029 414.895 434.064 413.147 440.912 410.862C447.61 408.626 455.71 406.882 463.139 405.435C470.673 403.968 478.519 402.294 485.367 400.59C494.898 398.22 507.586 397.74 525.787 397.44C531.585 397.345 534.96 400 537.807 402.559C543.131 407.345 542.945 415.955 543.244 432.757C543.409 442.01 536.14 448.481 531.293 455.619C524.911 465.018 516.204 471.317 508.219 477.591C501.233 483.081 490.591 489.566 481.999 493.298C474.395 496.601 466.619 500.42 458.07 503.287C447.458 506.846 435.842 508.431 426.156 511.273C416.717 514.042 402.809 516.409 389.122 520.397C379.543 523.189 370.869 526.68 362.32 529.248C353.58 531.873 331.133 539.177 315.301 543.234C304.168 546.087 296.219 548.353 281.985 552.923C267.471 557.584 256.893 557.494 246.626 559.779C238.511 561.586 230.665 563.212 221.834 564.633C211.375 566.315 176.224 566.636 148.927 568.057C115.57 569.793 107.558 565.506 99.0093 564.359C89.8675 563.132 83.6209 558.658 76.7731 556.655C69.6113 554.561 61.3934 553.523 54.2635 551.52C46.2533 549.269 38.0373 547.257 30.6082 544.39C23.4699 541.634 16.9383 535.274 10.3726 530.421C3.80834 525.568 2.09709 517.025 1.23363 507.327C0.519759 499.309 1.51575 487.957 3.21702 479.355C4.61907 472.265 8.90214 464.538 13.1852 457.1C17.0732 450.348 24.8376 443.413 32.2667 438.543C38.2372 434.629 47.0652 435.402 88.8359 435.102C104.716 434.988 112.619 437.661 122.588 438.526C132.181 439.358 139.976 442.797 148.525 446.503C156.733 450.062 165.042 452.486 173.891 455.354C181.202 457.723 187.851 461.628 198.956 466.755C207.772 470.825 220.303 476.453 230.314 480.741C239.118 484.512 250.533 489.018 259.381 492.725C268.215 496.425 279.6 501.002 287.311 503.569C295.917 506.435 305.794 511.821 315.805 515.27C322.892 517.712 329.766 520.962 336.613 524.112C343.691 527.368 350.283 531.234 358.55 534.384C366.069 537.248 373.639 541.505 382.488 544.655C390.788 547.61 401.544 554.618 411.837 558.068C420.397 560.936 428.353 565.472 435.782 568.621C442.954 571.662 449.452 574.613 456.3 578.602C463.414 582.745 469.97 586.596 483.349 599.393C487.549 603.409 487.667 607.704 488.522 612.532C489.857 620.072 487.684 626.535 485.128 629.668C471.493 646.379 425.036 632.27 413.905 631.405C403.849 630.624 392.55 628.846 381.701 627.981C371.941 627.204 358.354 625.422 346.086 624.558C338.133 623.997 331.544 620.287 324.414 617.436C314.351 613.413 307.606 605.461 299.057 599.187C290.489 592.899 282.541 586.083 276.531 578.362C270.308 570.369 263.151 563.828 250.627 550.424C241.33 540.474 234.084 529.59 229.793 521.87C224.094 511.617 215.277 503.912 205.59 493.349C198.012 485.085 193.049 476.521 185.073 466.533C174.096 452.787 168.53 446.837 163.683 439.699C157.938 431.239 152.013 424.583 146.867 417.726C141.922 411.139 137.754 404.04 133.188 397.184C127.662 388.884 123.494 378.361 121.211 370.084C119.216 362.851 117.783 353.847 116.364 342.437C113.4 318.61 118.911 310.468 120.912 301.608C122.497 294.587 125.169 286.501 129.452 271.958C130.382 268.802 130.88 267.088 132.017 265.933C133.154 264.777 134.847 264.212 136.565 265.051C145.799 269.558 162.101 289.172 174.181 302.969C181.704 311.562 187.851 320.088 194.135 331.207C202.272 345.607 211.241 368.021 214.943 376.299C218.262 383.72 219.79 393.118 222.073 402.259C224.524 412.074 228.339 422.22 231.186 431.927C234.715 443.958 238.598 451.322 241.163 460.464C243.828 469.964 247.147 478.713 252.268 490.696C256.812 501.33 260.826 512.951 263.109 520.389C265.386 527.811 268.794 536.917 273.077 550.321C276.224 560.17 276.796 568.313 278.497 576.59C280.116 584.469 283.053 592.28 285.336 600.557C287.29 607.643 288.183 614.535 290.183 621.673C292.431 629.693 292.184 636.789 293.885 643.645C295.72 651.038 296.732 659.044 297.595 665.9C298.748 675.055 297.895 686.434 295.612 693.29C293.329 700.146 291.055 706.977 287.072 713.833C282.933 720.955 276.83 727.52 265.725 738.073C262.094 741.524 257.44 741.249 253.457 740.402C245.742 738.761 243.762 727.588 240.616 719.029C237.212 709.768 235.76 695.131 237.179 682.522C239.227 664.326 240.308 656.271 242.591 645.991C244.631 636.8 248.276 623.197 250.003 614.029C251.947 603.709 258.535 595.224 265.938 582.377C273.835 568.672 281.344 554.687 287.875 545.562C297.183 532.559 304.118 524.455 310.966 516.734C318.391 508.363 324.636 499.906 334.604 485.38C343.181 472.883 351.412 462.826 356.285 454.823C364.432 441.443 378.187 427.458 385.061 417.452C392.562 406.532 400.996 396.644 412.119 378.678C417.318 370.28 419.838 362.954 425.524 351.562C435.27 332.03 437.518 315.021 439.219 307.6C441.548 297.441 442.066 287.083 442.365 252.922C442.507 236.716 438.099 225.455 436.099 216.014C434.127 206.707 430.132 192.929 426.985 182.923C422.809 169.641 415.872 157.527 404.792 135.041C399.611 124.527 393.097 117.023 387.668 109.585C382.299 102.229 377.127 95.8985 372.28 89.3249C366.283 81.1918 354.353 72.514 346.924 66.7792C340.406 61.7479 333.254 57.6548 326.406 56.2082C318.896 54.6218 298.613 53.0669 283.395 57.3124C261.232 63.4957 262.57 80.423 259.424 87.2791C256.172 94.365 253.44 100.966 252.576 110.664C252.37 112.974 251.73 114.661 252.285 116.099C255.088 123.351 269.341 120.961 277.334 121.825C287.182 122.89 304.016 124.967 316.942 123.546C328.598 122.264 336.605 120.413 345.154 116.707C354.999 112.439 365.672 110.142 377.059 105.014C386.452 100.785 395.867 98.1582 404.715 94.1695C412.63 90.6017 426.028 84.4973 438.322 80.4743C458.958 73.7214 464.841 69.056 471.689 66.4881C479.248 63.6534 486.487 57.6548 493.916 54.5049C502.955 50.6725 512.716 45.0894 519.845 41.1007C528.096 36.4851 534.943 31.9763 541.791 27.4056C549.034 22.5709 558.299 17.1513 568.84 8.60039C578.329 0.902749 583.98 -6.83233 585.972 -10.2476C586.942 -11.9103 587.4 -13.6628 586.562 -14.8184C579.6 -24.4213 557.82 -18.2507 502.431 -18.2678C480.018 -18.2748 473.458 -12.5672 466.61 -8.86094C458.875 -4.67423 449.521 -0.583928 438.416 4.82566C430.473 8.69456 413.717 17.0486 400.218 25.3684C392.586 30.0727 385.129 37.6256 376.281 42.7784C366.635 48.3959 356.062 59.8802 348.633 66.4539C342.343 72.0199 333.835 78.1291 325.277 85.2762C311.183 97.0475 305.315 106.101 299.613 112.958C294.387 119.241 291.637 129.486 287.354 136.924C283.789 143.114 284.216 150.611 282.216 157.467C280.123 164.637 279.087 172.865 278.223 179.722C277.348 186.67 275.667 193.408 275.368 217.315C275.236 227.853 279.634 234.494 281.916 241.35C282.489 243.07 283.053 244.765 284.473 245.356C291.746 248.382 300.117 239.116 307.547 233.98C316.512 227.782 322.926 219.155 329.492 213.72C335.78 208.514 340.024 200.324 345.453 193.186C351.449 185.301 355.413 174.68 359.422 165.513C363.827 155.443 369.091 143.318 373.956 130.427C378.285 118.953 381.094 106.17 382.795 98.7488C385.272 87.9467 387.352 77.6497 388.215 67.3698C388.557 63.298 389.643 32.8151 389.925 -11.9681C390.069 -34.8319 390.225 -42.765 389.361 -55.3046C388.763 -63.9874 386.805 -71.8673 384.522 -80.1443C382.384 -87.8978 379.966 -96.9637 377.683 -104.684C375.246 -112.926 371.998 -119.8 367.997 -126.657C364.436 -132.758 361.739 -140.343 357.174 -148.62C353.078 -156.047 348.061 -162.598 341.794 -170.875C338.753 -174.891 335.511 -178.022 332.954 -180.872C330.574 -183.526 326.397 -183.175 322.986 -182.61C314.876 -181.267 311.573 -171.226 307.589 -164.37C303.601 -157.506 300.186 -149.553 297.322 -142.115C294.782 -135.519 294.475 -128.428 294.176 -107.363C294.026 -96.8425 300.699 -84.5353 305.845 -75.0685C310.24 -66.9852 313.249 -59.9525 316.395 -53.0963C319.646 -46.0105 323.508 -38.2799 335.169 -20.6131C341.751 -10.6411 345.735 -0.0703746 352.566 12.786C363.732 33.8024 377.64 52.4506 384.488 61.3097C390.309 68.8397 396.448 75.2873 403.578 83.8468C410.951 92.698 418.676 96.4121 425.524 100.983C432.371 105.554 439.194 110.107 446.041 114.678C453.284 119.513 462.55 124.932 469.979 128.382C478.322 132.256 488.778 136.368 497.045 139.792C504.757 142.986 516.682 143.215 531.788 143.232C536.939 143.238 540.09 139.244 543.219 136.684C549.288 131.72 549.784 122.159 550.083 111.597C550.372 101.406 544.689 92.4747 540.979 85.3361C535.762 75.3002 526.462 70.2201 516.793 59.9658C496.427 38.3669 480.879 32.5584 471.757 27.9791C456.235 20.187 448.392 16.5693 436.167 10.5862C403.744 -5.28171 378.393 -9.657 361.491 -15.9568C339.078 -24.311 323.063 -30.7818 308.205 -38.7677C284.8 -51.3471 276.83 -57.0422 269.7 -61.613C261.74 -66.7155 254.602 -70.7375 246.344 -77.003C231.053 -88.6037 224.407 -96.9637 218.397 -104.684C212.313 -112.5 209.566 -119.8 206.702 -128.36C203.886 -136.776 202.145 -144.897 202.128 -163.702C202.119 -173.715 212.917 -180.847 220.628 -186.864C228.687 -193.153 235.726 -196.288 258.184 -207.099C267.938 -211.793 276.18 -213.407 285.31 -214.271C294.066 -215.1 300.699 -218.543 307.829 -219.407C316.824 -220.498 324.636 -223.678 331.484 -224.543C339.099 -225.504 347.992 -227.684 359.679 -229.387C367.505 -230.528 374.221 -232.238 381.068 -233.102C389.225 -234.132 399.287 -236.244 407.28 -237.947C416.918 -240.001 426.062 -240.797 434.073 -243.365C441.49 -245.743 448.871 -252.746 457.437 -263.026C463.227 -269.974 466.003 -277.295 468.286 -284.433C470.903 -292.619 471.714 -301.809 470.013 -309.829C468.513 -316.899 464.328 -323.516 461.182 -331.793C458.222 -339.579 447.845 -349.16 439.253 -354.356C433.21 -358.01 425.583 -354.946 418.736 -352.943C412.023 -350.98 398.295 -339.06 391.362 -328.712C387.041 -322.263 387.933 -300.885 389.635 -287.626C390.554 -280.458 394.191 -273.939 396.474 -267.083C398.985 -259.542 402.74 -251.685 405.023 -244.546C407.691 -236.201 412.418 -229.43 415.564 -222.574C419.136 -214.79 425.515 -206.046 429.242 -198.325C433.296 -189.929 438.065 -183.209 443.759 -174.085C451.899 -161.039 460.84 -154.689 468.269 -148.954C474.55 -144.105 481.939 -142.671 498.721 -142.654C502.516 -142.65 504.166 -144.349 505.321 -145.778C510.146 -151.755 508.202 -160.886 505.637 -169.163C503.171 -177.119 496.814 -183.141 491.967 -189.997C486.249 -198.084 477.459 -205.395 467.474 -213.672C460.932 -219.095 453.522 -224.226 443.263 -233.068C429.109 -245.267 416.487 -251.616 409.896 -257.908C403.777 -263.748 394.807 -270.447 386.54 -275.882C378.749 -281.005 368.065 -292.086 357.764 -300.979C344.77 -312.196 340.093 -320.092 336.365 -326.948C334.479 -330.418 333.219 -333.804 333.784 -337.502C335.215 -346.883 339.477 -354.33 342.042 -362.89C344.874 -372.341 348.026 -380.009 351.728 -388.286C354.301 -395.433 357.704 -403.393 360.85 -410.831C361.705 -412.552 395.636 -448.542 400.218 -452" stroke="black" stroke-opacity="0.07" stroke-width="2" stroke-linecap="round"/>
</svg>
