<svg width="502" height="1061" viewBox="0 0 502 1061" fill="none" xmlns="http://www.w3.org/2000/svg">
<path d="M408.068 1.00024C405.392 1.44401 400.026 4.12003 391.292 7.71048C384.6 10.4614 373.185 14.4207 358.837 19.3559C327.929 29.9869 320.687 28.3253 314.636 29.6835C305.285 31.7821 295.621 35.9365 288.406 37.53C282.793 38.7699 277.655 42.2299 268.256 46.923C255.566 53.2588 244.494 62.374 237.535 68.4388C228.222 76.5553 219.374 88.3812 213.33 96.4429C206.979 104.914 202.35 118.799 201.866 140.994C201.657 150.561 209.464 158.738 216.167 166.793C222.469 174.365 230.092 176.703 251.426 180.711C270.462 184.286 306.486 189.156 327.222 191.899C352.326 195.22 360.962 195.086 372.56 195.758C391.229 196.841 407.57 195.099 417.407 192.867C435.565 188.747 443.004 182.997 449.728 178.082C454.068 174.909 455.577 170.45 456.25 165.993C458.393 151.783 453.358 145.371 442.856 130.606C436.892 122.22 426.504 115.787 408.888 107.524C397.345 102.109 379.29 97.0413 351.952 92.0725C324.613 87.1037 288.225 83.1098 251.729 81.0524C215.233 78.9949 179.732 78.9949 159.446 79.4387C128.681 80.1117 120.778 85.2614 112.259 88.1728C102.93 91.3612 92.1086 95.5621 67.7218 108.075C57.8902 113.119 54.4156 119.767 51.7329 124.676C47.8806 131.724 46.3472 145.25 44.3301 162.906C42.1735 181.784 44.5318 195.947 46.3203 203.329C47.806 209.462 55.2359 224.105 69.9742 248.916C77.8411 262.159 89.1502 275.057 99.9618 287.685C110.774 300.312 121.424 311.849 129.351 320.9C142.48 335.888 149.408 344.338 153.657 348.137C157.906 351.936 162.398 356.885 178.199 372.006C191.275 384.521 213.081 408.428 225.177 421.654C243.198 441.358 245.785 453.692 246.921 462.211C249.052 478.185 247.157 500.758 244.023 508.833C240.469 517.994 231.047 528.997 225.204 535.735C220.609 541.032 214.453 543.816 206.841 548.066C196.709 553.723 184.922 552.772 175.455 553.909C171.843 554.342 161.618 555.032 147.29 554.144C130.021 553.074 114.566 528.271 107.755 516.733C102.754 508.263 96.1428 491.076 90.7235 473.722C87.6945 464.023 86.6758 448.017 88.2357 436.722C89.2961 429.043 98.2675 417.062 104.144 407.359C108.986 399.366 121.155 391.458 131.012 384.499C140.298 377.943 149.825 375.294 159.48 371.267C169.523 367.077 181.641 365.881 190.637 365.202C208.038 363.888 238.523 365.854 252.038 369.666C257.717 371.268 262.809 374.38 271.059 377.943C285.491 384.177 307.078 398.504 327.915 412.839C340.48 421.484 347.501 432.58 359.617 455.884C368.074 472.151 372.647 491.775 378.457 509.674C386.803 535.39 384.75 547.824 386.545 575.539C387.131 584.587 387.897 601.949 386.787 630.128C385.212 670.129 380.286 677.806 380.716 692.591C380.8 695.467 383.378 695.772 385.846 696C396.794 697.015 410.219 689.559 427.284 676.555C434.096 671.365 450.951 655.12 473.805 634.512C484.047 625.277 487.38 615.612 492.302 601.754C494.828 594.643 496.336 587.009 497.694 568.701C499.053 550.392 499.94 521.548 500.175 505.357C500.536 480.576 494.588 469.022 486.345 449.14C474.881 421.49 461.427 403.991 457.85 400.636C451.454 394.636 444.86 389.656 433.436 383.82C426.722 380.39 418.853 380.673 401.189 380.438C392.607 380.323 381.254 386.025 369.561 389.616C352.504 394.853 335.506 402.162 310.447 417.801C296.38 426.58 291.103 437.098 284.379 445.852C281.198 449.994 272.317 461.25 256.462 491.352C246.06 511.102 235.726 542.31 229.117 559.415C219.327 584.751 212.678 599.757 201.019 618.174C197.466 623.786 191.175 636.065 180.659 653.076C168.742 672.355 160.663 678.263 146.799 689.687C134.883 699.505 122.123 706.072 104.897 718.592C96.3468 724.806 81.8617 732.483 64.5415 737.902C54.5393 741.032 49.0501 741.493 39.1999 741.506C35.3643 741.511 32.4561 737.485 27.3259 730.802C18.0086 718.664 10.51 696.807 4.90916 675.533C0.196086 657.632 1.06994 646.527 1.0565 624.373C1.04821 610.716 12.2044 601.264 24.0985 592.933C35.9661 584.621 60.0501 587.305 79.8984 588.865C94.0753 589.979 106.336 594.459 117.786 597.155C130.971 600.26 142.213 606.105 153.415 611.04C168.71 617.778 173.169 624.931 177.654 629.2C181.869 633.213 185.702 645.048 191.323 655.853C193.587 660.205 200.024 672.817 210.983 693.607C228.407 726.658 230.993 734.742 239.478 746.374C248.2 758.33 267.207 771.01 285.791 783.327C301.729 793.891 309.418 796.627 318.145 800.426C337.295 808.761 347.044 808.272 358.931 809.63C369.409 810.828 385.113 811.876 401.008 812.098C420.591 812.371 435.823 812.333 443.892 806.087C458.176 795.028 456.909 783.233 462.288 756.634C466.616 735.229 457.85 727.642 448.672 712.648C445.022 706.684 440.355 703.867 437.45 700.734C429.127 691.755 395.696 693.539 376.964 697.332C369.894 698.763 357.949 704.257 343.399 711.418C333.469 716.305 322.085 723.083 306.655 731.353C279.581 745.863 266.924 760.292 256.153 769.705C251.098 774.123 241.388 780.893 225.977 794.065C205.83 811.285 193.824 825.297 186.475 833.768C181.2 839.85 171.582 848.453 157.685 859.903C143.787 871.354 125.593 885.11 114.667 893.75C95.2615 909.095 88.5047 913.162 81.9962 915.192C71.4176 918.493 58.4902 908.267 51.7329 905.349C42.5698 901.392 37.835 889.01 33.3503 882.051C29.9766 876.816 28.8522 871.071 27.7361 858.572C24.9397 827.257 31.0845 819.084 35.5557 812.347C40.4394 804.988 53.0305 805.152 61.0855 804.036C68.5882 802.997 75.8911 804.252 101.67 812.246C124.896 819.449 168.274 834.441 198.444 845.535C228.613 856.629 244.144 863.729 253.477 867.609C270.894 874.849 282.066 879.086 304.429 889.602C323.857 898.737 332.736 909.558 344.596 922.097C350.642 928.489 355.596 935.995 361.876 943.411C366.707 949.116 372.19 955.279 378.235 962.903C385.051 971.501 388.327 980.372 391.696 987.788C394.98 995.019 397.31 1004.15 399.764 1009.75C402.497 1016 403.576 1021.63 405.372 1029.25C406.747 1035.08 407.611 1040.45 409.628 1045.84C411.188 1048.52 413.877 1051.67 417.454 1055.02C419.256 1056.6 421.031 1057.94 422.86 1059.31" stroke="black" stroke-opacity="0.07" stroke-width="2" stroke-linecap="round"/>
</svg>
