<svg width="1007" height="942" viewBox="0 0 1007 942" fill="none" xmlns="http://www.w3.org/2000/svg">
<path d="M33.5108 -564C33.5108 -559.699 34.9373 -551.075 37.4662 -538.117C40.1013 -524.615 39.9951 -511.478 42.1457 -501.351C44.0414 -492.426 49.3325 -484.071 55.1035 -475.414C64.9958 -460.576 85.342 -438.724 91.8479 -426.069C96.5777 -416.869 99.7804 -406.995 100.872 -397.247C102.288 -384.596 101.25 -371.677 100.159 -362.664C98.7601 -351.116 92.6044 -341.417 86.1309 -332.761C78.3637 -322.374 65.9755 -310.423 55.1684 -306.802C49.5489 -304.92 42.1997 -304.63 33.9323 -306.057C14.4803 -309.413 6.88189 -335.538 1.82413 -354.98C0.356753 -360.621 1.08924 -367.182 2.15915 -371.558C3.88408 -378.615 13.2797 -383.133 22.9954 -387.812C36.6284 -394.378 63.6412 -386.807 89.6217 -370.975C103.716 -362.386 109.853 -352.225 120.627 -343.222C148.986 -319.529 173.961 -313.276 186.562 -311.482C199.105 -309.696 217.838 -308.953 230.526 -310.747C241.642 -312.319 251.773 -313.276 262.223 -316.864C271 -319.877 284.151 -324.775 295.012 -330.189C304.687 -335.012 313.028 -345.654 316.291 -356.461C317.957 -361.976 315.946 -368.003 313.795 -373.039C311.799 -377.712 305.873 -379.545 301.561 -382.063C284.704 -391.907 233.314 -378.896 198.958 -360.535C183.954 -352.517 168.341 -335.711 158.896 -322.321C155.73 -317.834 149.558 -294.039 141.28 -256.625C135.571 -230.824 133.672 -216.055 131.51 -207.788C129.591 -200.445 125.069 -171.595 115.354 -130.917C107.623 -98.5513 96.2357 -84.9439 89.0165 -73.7585C81.1281 -61.5364 70.2768 -57.5155 65.9647 -57.148C55.4158 -56.2491 42.9779 -84.7277 29.2311 -112.513C20.4334 -130.295 20.5422 -149.657 21.6121 -162.604C23.2739 -182.713 43.5398 -190.767 52.9313 -194.387C61.7793 -197.798 76.653 -191.545 106.524 -176.447C128.47 -165.356 145.127 -152.639 154.519 -148.662C164.167 -144.576 178.241 -136.818 222.788 -124.908C277.184 -110.366 303.647 -130.982 314.098 -136.375C316.866 -137.803 318.777 -140.319 320.236 -142.492C334.303 -163.436 325.996 -210.911 331.411 -222.096C335.884 -231.337 336.112 -247.612 331.454 -259.208C326.402 -271.785 308.056 -273.635 295.812 -276.164C286.554 -278.076 272.09 -278.693 259.067 -276.899C243.304 -274.728 233.141 -274.37 223.036 -270.069C207.588 -263.493 198.515 -248.477 192.409 -234.827C184.149 -216.363 182.65 -185.212 183.72 -154.628C184.823 -123.096 196.31 -112.307 204.588 -102.214C213.582 -91.2482 233.011 -92.8114 255.296 -91.0174C301.349 -87.31 325.867 -104.959 345.784 -122.293C357.614 -132.589 361.314 -144.642 365.637 -158.313C368.458 -167.233 364.945 -175.637 360.644 -182.099C348.209 -200.783 326.818 -203.044 316.335 -204.838C301.7 -207.342 282.854 -195.868 268.081 -186.152C257.405 -179.132 251.859 -164.225 246.066 -144.037C242.651 -132.134 241.744 -120.261 240.652 -108.341C239.778 -98.7961 233.098 -90.6932 225.198 -80.6102C210.692 -62.0969 191.382 -48.1998 177.311 -38.0952C164.833 -29.1347 151.698 -26.5424 145.235 -24.381C129.385 -19.08 115.689 -35.1448 106.675 -42.3423C92.905 -53.3387 91.9128 -76.1253 87.9141 -94.1947C85.0977 -106.922 85.3852 -132.97 87.1792 -148.976C88.3088 -159.053 91.1347 -172.006 96.5274 -183.191C99.1854 -188.704 105.53 -191.502 113.062 -193.663C117.616 -194.97 124.161 -194.398 128.538 -193.328C142.228 -189.982 145.171 -171.4 146.262 -160.939C147.051 -153.383 148.067 -119.764 149.85 -67.6093C151.875 -8.37862 164.623 3.67419 175.042 27.0499C183.056 45.0314 187.664 59.8278 194.149 73.2177C200.05 85.4035 212.867 88.0126 228.688 90.5415C239.324 92.2414 249.611 90.1956 261.802 86.6185C281.817 80.7452 307.862 64.3451 333.41 47.4429C350.959 35.833 357.705 25.3748 362.017 18.1989C367.639 8.84164 368.533 -1.27545 367.82 -8.10552C367.147 -14.5508 362.071 -20.0149 355.975 -25.4076C341.266 -38.4215 326.083 -33.7183 302.048 -32.67C287.985 -32.0567 263.833 -27.3205 242.424 -22.6302C202.77 -13.9428 179.105 -3.50171 167.25 3.67419C140.821 19.671 132.98 43.2713 127.198 55.559C118.766 73.4788 107.778 83.6466 101.607 98.7765C95.7657 113.098 120.573 134.051 137.195 147.063C158.074 163.407 183.255 164.354 213.526 171.94C226.301 175.142 236.643 175.204 262.126 169.12C307.212 158.355 324.483 142.134 345.049 122.682C357.601 110.81 364.167 96.0099 375.331 84.1113C381.93 77.0783 387.965 72.1911 392.277 70.0297C394.327 69.0021 396.589 69.2948 398.404 70.7213C408.402 78.5765 405.278 99.4681 407.072 114.252C410.766 144.696 400.263 159.296 390.213 172.967C366.02 205.874 353.447 209.744 344.79 214.455C334.186 220.227 302.48 222.755 276.381 220.961C253.998 219.423 220.951 209.83 204.318 200.46C195.904 195.72 191.317 186.054 187.718 177.787C180.017 160.096 187.664 132.797 202.395 109.011C215.713 87.5048 231.585 79.4534 243.127 68.9706C255.461 57.7683 269.064 51.3118 279.871 46.2541C289.702 41.6535 305.03 48.3722 317.34 55.2131C331.409 63.032 333.907 78.5889 343.288 114.512C354.43 157.18 342.596 181.515 344.747 198.936C346.204 210.744 356.213 230.536 380.691 258.332C392.051 271.231 408.088 278.217 422.861 280.746C448.118 285.069 467.138 269.658 518.548 238.372C547.712 220.623 554.374 204.816 560.523 188.237C568.33 167.189 561.636 138.547 560.544 127.685C559.528 117.57 542.27 105.39 529.96 99.5654C518.57 94.1754 501.937 93.8052 483.878 93.7836C453.349 93.7471 416.95 118.921 398.145 132.992C367.314 156.062 358.504 176.587 349.124 190.626C331.073 217.638 322.452 233.519 318.474 242.532C310.855 259.799 305.852 293.217 308.002 307.731C309.977 321.055 317.351 330.783 325.272 339.439C333.565 348.501 339.678 358.168 346.508 363.571C349.446 365.895 352.625 365.409 355.165 364.695C365.114 361.901 372.813 349.63 380.756 339.504C388.347 329.828 387.986 309.298 389.78 293.434C392.7 267.616 387.986 255.955 386.192 239.042C383.867 217.124 383.663 181.256 381.869 142.923C379.843 99.6222 383.663 89.5256 392.633 44.2548C394.928 32.6752 395.897 26.1097 399.485 18.5555C402.651 11.8895 410.292 10.2233 415.685 9.85586C426.963 9.08741 431.907 31.0377 436.954 45.811C445.939 72.1122 454.948 104.353 457.509 138.363C459.192 160.711 456.461 205.205 454.634 229.899C453.349 247.269 451.403 258.721 450.311 303.992C449.838 323.641 447.08 339.429 445.988 369.969C445.377 387.064 442.757 399.948 442.379 430.132C442.269 438.918 445.61 443.198 448.841 447.51C455.437 456.312 470.034 460.468 498.825 468.054C511.41 471.371 519.812 468.443 524.838 466.293C541.906 458.988 557.227 429.689 577.728 380.776C585.386 362.504 598.121 338.521 606.507 319.608C627.941 271.273 631.494 251.675 634.023 236.145C634.777 231.512 634.39 225.046 632.607 219.956C630.824 214.866 627.257 211.3 623.637 209.106C605.538 198.139 573.956 206.891 534.802 219.794C519.487 224.841 500.77 236.243 483.003 248.876C447.648 274.015 427.67 301.906 417.955 318.463C408.3 334.915 398.837 345.913 389.467 356.72C376.769 371.365 356.386 385.51 334.037 402.088C313.726 417.154 303.734 425.885 300.091 434.898C299.144 437.243 300.794 440.28 302.231 442.463C305.026 446.708 312.293 448.969 334.469 451.13C383.523 455.911 418.938 450.439 425.401 447.921C445.014 440.279 480.02 423.162 497.82 409.75C506.531 403.186 528.307 380.711 545.371 367.948C555.399 360.449 575.945 361.086 586.806 362.88C597.604 364.663 613.424 371.85 627.852 390.892C645.243 413.845 642.301 425.885 642.322 446.375C642.341 463.636 630.802 471.275 625.409 479.931C613.383 499.236 586.925 529.59 574.626 546.189C566.728 556.85 560.944 570.657 558.383 583.312C557.431 588.017 557.292 592.336 559.442 596.291C570.277 616.218 630.629 598.15 655.172 595.254C679.681 592.361 703.469 583.042 718.578 573.337C741.565 558.571 748.903 527.645 756.846 494.845C760.735 478.787 758.327 464.142 755.095 459.463C752.43 455.602 746.093 455.475 733.211 453.324C706.202 448.815 677.013 447.543 646.17 450.039C568.668 456.312 560.944 467.687 546.56 479.542C525.082 497.244 508.465 519.431 493.929 536.117C482.845 548.841 472.304 559.201 468.348 559.579C462.734 560.116 465.776 542.731 471.872 524.77C478.833 504.257 500.965 483.681 523.995 464.964C537.715 453.812 548.603 449.726 562.23 442.204C584.124 430.12 604.757 410.885 622.372 395.777C636.71 383.48 648.05 379.825 654.156 378.745C657.38 378.174 660.976 378.377 662.813 379.447C671.652 384.595 668.973 403.536 678.3 462.024C684.817 502.893 681.228 528.207 679.434 537.166C673.739 565.607 668.281 588.596 661.073 610.664C656.713 624.013 650.99 642.675 641.631 660.744C633.449 676.542 622.156 691.739 616.407 703.249C610.234 715.606 607.026 727.057 604.865 733.519C602.352 741.034 605.556 747.958 609.144 751.913C618.853 762.616 640.096 755.198 657.344 753.037C680.429 750.144 703.469 742.252 724.641 731.498C755.032 716.062 777.693 694.744 790.997 677.15C816.631 643.249 812.341 624.087 812.352 618.694C812.357 616.059 809.509 614.015 807.337 612.912C798.201 608.276 770.042 613.928 746.849 620.078C728.18 625.028 705.112 637.661 693.138 653.18C679.211 671.229 699.19 707.518 707.846 723.793C715.904 738.942 730.185 750.097 737.75 759.111C745.126 767.899 743.888 778.196 748.211 796.179C751.437 809.598 751.107 824.277 753.258 836.911C755.433 849.686 766.151 873.86 778.806 892.751C786.351 904.013 797.881 910.042 816.599 918.342C840.597 928.983 880.707 931.7 893.362 933.494C905.255 935.179 919.656 938.184 939.077 939.978C950.652 941.047 986.401 942.507 1033.76 937.125C1041.43 936.022 1044.28 936.022 1049.68 934.952C1055.07 933.883 1062.92 931.743 1071 929.538" stroke="black" stroke-opacity="0.07" stroke-width="2" stroke-linecap="round"/>
</svg>
