<svg width="452" height="1082" viewBox="0 0 452 1082" fill="none" xmlns="http://www.w3.org/2000/svg">
<path d="M36.14 1081C38.992 1078.56 45.5318 1074.46 57.1915 1070.98C69.5221 1067.3 74.2232 1064.22 79.1465 1061.56C84.237 1058.81 92.6379 1054.41 102.282 1049.07C110.506 1044.52 119.264 1037.63 126.88 1032.28C131.537 1029 139.351 1024.92 145.933 1021.42C154.578 1016.82 164.33 1008.14 173.789 1001.16C183.416 994.059 193.046 985.606 198.793 981.085C202.444 978.212 208.608 972.509 216.58 964.541C224.147 956.978 239.672 941.055 258.511 921.814C267.32 912.817 275.789 905.767 285.617 896.761C290.38 892.396 299.133 884.487 310.805 872.618C324.138 859.06 338.519 843.081 343.645 838.559C350.711 832.327 356.54 823.422 362.902 814.821C369.217 806.283 377.045 798.431 381.753 792.085C390.976 779.653 404.065 762.406 410.641 753.388C417.666 743.755 424.987 730.043 429.689 721.866C440.712 702.698 442.197 696.451 445.276 688.066C447.972 680.724 449.573 666.644 450.611 654.886C451.426 645.662 450.826 633.396 450.003 623.978C448.803 610.264 445.098 599.853 435.903 573.867C429.365 555.389 422.971 550.658 417.04 543.488C409.056 533.839 402.491 527.313 396.148 521.575C381.85 508.641 368.932 497.038 359.681 489.015C357.049 486.732 353.369 483.523 341.549 475.365C329.73 467.206 309.852 454.232 298.395 446.939C280.594 435.609 273.023 431.87 261.369 425.948C247.182 418.738 235.714 414.656 228.381 412.42C214.296 408.125 196.857 401.976 182.523 398.905C172.72 396.804 153.094 396.632 137.998 397.651C128.329 398.305 117.74 401.129 92.3736 408.888C75.0107 414.199 54.6285 424.449 46.0112 428.559C28.8668 436.735 20.9953 450.668 15.6725 456.609C10.1658 462.755 9.0958 473.595 6.85236 485.047C4.68981 496.085 4.17867 502.666 2.13806 516.157C-0.930732 536.445 2.94938 545.669 4.98999 555.91C6.91878 565.59 9.07121 581.251 15.8261 610.297C19.7034 626.969 25.8755 639.453 29.3544 647.428C35.5477 661.623 47.9657 680.38 54.7637 690.05C61.1102 699.078 70.9287 708.271 78.5134 715.846C91.779 729.094 104.095 734.466 116.209 744.314C122.632 749.535 131.582 754.15 142.227 759.685C150.685 764.083 160.273 766.854 168.866 770.337C179.665 774.715 189.358 777.519 198.965 779.552C222.327 784.497 232.776 787.741 240.582 788.982C250.205 790.512 258.198 792.263 270.847 793.283C309.727 796.417 318.851 786.955 324.997 783.472C332.461 779.242 340.535 763.291 347.13 753.173C351.175 746.967 358.581 739.479 365.969 728.624C368.244 725.281 370.456 720.681 374.955 710.071C379.454 699.462 385.945 682.838 390.303 670.625C397.202 651.289 399.184 640.35 400.205 634.422C403.57 614.87 408.613 586.289 409.633 580.748C410.862 574.074 411.071 564.197 413.112 545.786C414.835 530.237 414.759 522.816 415.78 510.339C416.461 502.003 416.394 494.139 417.009 484.156C418.046 467.311 417.624 453.593 418.238 444.218C419.223 429.198 418.041 416.733 416.615 403.101C415.53 392.719 413.973 375.277 411.92 359.403C408.072 329.653 404.114 313.512 402.479 308.616C397.192 292.784 387.764 276.271 381.587 271.32C377.005 267.647 368.907 268.039 362.742 266.602C355.946 265.017 345.182 269.243 333.061 270.89C314.99 273.344 309.066 281.112 303.737 285.216C292.712 293.706 275.113 314.606 266.459 327.777C253.521 347.468 248.831 353.604 245.339 360.146C241.445 367.445 238.566 373.275 234.909 381.808C225.965 402.677 218.898 417.912 217.877 421.18C214.891 430.747 207.871 448.555 204.355 460.486C201.659 469.636 199.635 476.864 197.594 484.862C196.728 488.256 194.336 504.607 190.034 527.939C186.2 548.733 184.883 568.596 183.457 578.64C181.025 595.771 177.508 618.554 176.487 629.016C175.952 634.504 173.844 650.831 169.751 672.118C167.818 682.17 162.793 701.575 156.856 729.208C153.136 746.517 147.636 764.274 142.694 777.888C136.899 793.853 130.426 806.122 126.707 813.132C123.14 819.857 116.486 826.641 111.145 832.379C106.389 837.488 100.087 841.803 95.1641 843.861C93.9627 844.363 92.7116 844.678 91.2734 844.887C80.7128 846.421 68.5439 827.919 64.4258 822.998C60.6295 818.462 57.0624 810.742 46.2202 789.068C41.148 778.929 36.5826 765.724 33.2819 752.178C29.5834 736.999 28.7643 715.029 29.9875 701.569C30.5099 695.819 34.8862 687.064 38.5863 680.473C41.8742 674.615 52.4649 665.366 69.2692 653.258C78.469 646.629 92.1708 641.186 102.497 637.254C109.471 634.599 120.887 631.332 130.561 628.653C138.812 626.369 154.053 621.503 165.387 618.007C174.092 615.322 188.055 611.673 200.421 609.197C209.312 607.418 218.049 602.237 228.277 598.152C236.009 595.063 241.799 588.746 249.187 581.78C259.531 572.026 267.614 557.243 271.13 549.214C273.594 543.585 277.055 533.088 278.512 523.621C279.765 515.476 278.727 503.968 276.065 496.387C273.357 488.671 268.893 481.434 264.197 474.48C260.208 468.573 248.892 456.922 232.942 441.791C220.265 429.765 209.912 422.876 202.966 416.339C190.019 404.155 182.056 398.303 174.871 390.722C166.692 382.093 148.939 368.053 139.013 359.79C132.194 354.115 123.468 347.534 107.703 336.058C97.8607 328.894 91.4824 322.936 86.3563 319.035C80.111 314.282 74.6904 307.381 68.3288 302.043C62.6627 297.288 59.103 290.991 54.1859 284.239C52.7701 282.295 53.35 279.146 54.7698 276.265C60.3601 264.921 70.5108 261.92 76.6879 258.824C83.8063 255.256 92.6625 250.838 97.9914 247.975C109.03 242.045 125.435 238.969 134.643 235.897C150.593 230.576 161.453 225.06 173.359 221.356C193.793 214.998 205.339 211.938 221.897 206.213C238.418 200.5 253.674 194.737 262.697 191.051C279.491 184.19 291.388 181.221 300.811 177.941C307.406 175.645 312.704 172.203 328.851 164.241C337.034 160.206 343.436 156.648 349.38 152.348C354.865 148.379 361.458 143.55 369.245 137.204C377.242 130.688 380.315 123.892 386.056 116.729C390.792 110.818 399.934 94.9197 407.365 80.0835C409.661 75.4989 416.345 62.5443 424.741 44.7409C433.162 24.8364 440.98 7.15587 441.797 4.70468C442.209 3.46987 442.615 2.25349 443.033 1.00024" stroke="black" stroke-opacity="0.07" stroke-width="2" stroke-linecap="round"/>
</svg>
